<?xml version="1.0" encoding="utf-8"?>
<!-- Generator: Adobe Illustrator 24.3.0, SVG Export Plug-In . SVG Version: 6.00 Build 0)  -->
<svg version="1.1" id="Слой_1" xmlns="http://www.w3.org/2000/svg" xmlns:xlink="http://www.w3.org/1999/xlink" x="0px" y="0px"
	 viewBox="0 0 48 48" style="enable-background:new 0 0 48 48;" xml:space="preserve">
<style type="text/css">
	.st0{fill:#E42313;stroke:#E42313;stroke-width:4;stroke-miterlimit:10;}
</style>
<path class="st0" d="M24,26.1L13.5,36.6c-0.3,0.3-0.7,0.5-1.1,0.5s-0.8-0.2-1.1-0.5s-0.4-0.6-0.4-1s0.1-0.8,0.4-1L21.9,24L11.4,13.5
	c-0.3-0.3-0.4-0.7-0.4-1.1s0.1-0.8,0.4-1.1s0.7-0.4,1.1-0.4s0.8,0.1,1.1,0.4L24,21.9l10.5-10.5c0.3-0.3,0.6-0.4,1-0.4s0.8,0.1,1,0.4
	s0.5,0.7,0.5,1.1s-0.2,0.8-0.5,1.1L26.1,24l10.5,10.5c0.3,0.3,0.5,0.6,0.5,1s-0.2,0.8-0.5,1S36,37,35.5,37s-0.8-0.2-1-0.5L24,26.1z"
	/>
</svg>
