<?xml version="1.0" encoding="utf-8"?>
<!-- Generator: Adobe Illustrator 24.3.0, SVG Export Plug-In . SVG Version: 6.00 Build 0)  -->
<svg version="1.1" id="Слой_1" xmlns="http://www.w3.org/2000/svg" xmlns:xlink="http://www.w3.org/1999/xlink" x="0px" y="0px"
	 viewBox="0 0 48 48" style="enable-background:new 0 0 48 48;" xml:space="preserve">
<style type="text/css">
	.st0{fill:#9C9100;}
</style>
<path class="st0" d="M4.6,42c-0.6,0-1-0.2-1.3-0.8s-0.3-1,0-1.5L22.7,6.2C23,5.8,23.4,5.5,24,5.5s1,0.2,1.3,0.8l19.4,33.5
	c0.3,0.5,0.3,1,0,1.5C44.4,41.8,44,42,43.4,42H4.6z M24.2,19.4c-0.4,0-0.8,0.1-1.1,0.4c-0.3,0.3-0.4,0.6-0.4,1.1v8.2
	c0,0.4,0.1,0.8,0.4,1.1c0.3,0.3,0.6,0.4,1.1,0.4s0.8-0.1,1.1-0.4c0.3-0.3,0.4-0.6,0.4-1.1v-8.2c0-0.4-0.1-0.8-0.4-1.1
	C25,19.5,24.6,19.4,24.2,19.4z M24.2,36.2c0.4,0,0.8-0.1,1.1-0.4c0.3-0.3,0.4-0.6,0.4-1.1c0-0.4-0.1-0.8-0.4-1.1s-0.6-0.4-1.1-0.4
	s-0.8,0.1-1.1,0.4s-0.4,0.6-0.4,1.1c0,0.4,0.1,0.8,0.4,1.1C23.4,36,23.8,36.2,24.2,36.2z M7.2,39h33.6L24,10L7.2,39z"/>
</svg>
